<svg version="1.1" id="Layer_1" xmlns="http://www.w3.org/2000/svg" xmlns:xlink="http://www.w3.org/1999/xlink" x="0px" y="0px"
	 width="100%" viewBox="0 0 603 414" enable-background="new 0 0 603 414" xml:space="preserve">
<path fill="#000000" opacity="1.000000" stroke="none" 
	d="
M434.000000,415.000000 
	C290.833374,415.000000 148.166718,414.982880 5.500175,415.094086 
	C1.750926,415.096985 0.902686,414.249786 0.905805,410.500000 
	C1.018098,275.500122 1.018088,140.500153 0.905860,5.500279 
	C0.902743,1.751253 1.750044,0.904346 5.499847,0.906354 
	C203.499741,1.012377 401.499695,1.012359 599.499573,0.906457 
	C603.248047,0.904452 604.097351,1.749319 604.094238,5.499732 
	C603.981873,140.499603 603.981934,275.499573 604.094116,410.499451 
	C604.097229,414.247925 603.252075,415.106232 599.500183,415.096649 
	C544.500427,414.956116 489.500153,415.000000 434.000000,415.000000 
z"/>
<path fill="#FC360C" opacity="1.000000" stroke="none" 
	d="
M330.672363,167.817047 
	C329.706818,169.709808 328.982056,171.600235 326.344757,170.178253 
	C324.622223,169.249496 322.913696,170.204926 321.323120,171.755066 
	C320.651947,171.673737 320.302429,171.477585 320.014099,171.556931 
	C306.367859,175.313187 292.801666,172.378937 279.236786,170.987595 
	C274.994110,170.552414 270.606232,172.106430 266.164001,169.840973 
	C265.617737,169.521683 265.410797,169.382736 264.924316,169.014008 
	C264.480957,168.622986 264.317200,168.461761 263.737976,167.817261 
	C263.050995,167.064789 262.776611,166.798615 262.309509,166.428406 
	C261.218445,166.857162 262.217316,167.591263 261.873047,168.560669 
	C260.536316,171.841232 257.872223,171.403870 255.424026,171.655716 
	C245.777328,172.648132 236.214859,170.545349 226.588318,170.938919 
	C225.260971,170.993164 223.932358,171.026337 222.604614,171.056763 
	C220.663574,171.101242 218.191895,171.674301 217.687561,169.034485 
	C217.236023,166.670929 219.753891,166.428146 221.592087,165.273773 
	C221.935822,164.998886 221.944489,164.947083 221.970428,164.943039 
	C222.145309,164.811096 222.294235,164.683197 222.681000,164.381622 
	C223.985535,163.965347 225.052246,163.722748 226.425262,163.340240 
	C226.924561,163.288254 227.117584,163.376175 227.591736,163.613464 
	C228.705521,164.029297 229.544281,164.000244 230.689636,163.718842 
	C231.610657,163.491150 232.261353,163.526978 233.161194,163.186615 
	C233.470535,163.116150 233.574036,163.007401 233.628204,163.059372 
	C233.845871,163.004395 234.009369,162.897430 234.446320,162.692184 
	C235.218216,162.738403 235.709305,163.207825 236.533310,162.608475 
	C237.048264,162.649750 237.253983,162.710388 237.781677,162.846313 
	C241.390991,163.043350 244.678192,163.058365 248.315323,162.828491 
	C248.898376,162.686096 249.131317,162.626343 249.688293,162.725128 
	C250.184006,162.940460 250.355713,162.997253 250.784485,163.140808 
	C251.041519,163.227539 251.492157,163.420334 251.717224,163.323334 
	C252.260086,163.186844 252.597305,163.058182 252.892563,163.122391 
	C254.741623,163.524506 257.423157,165.694687 258.213989,163.844421 
	C259.093933,161.785583 255.590378,161.646744 253.941315,160.203461 
	C253.299164,159.232376 253.226334,158.523773 253.753738,157.482605 
	C266.920837,148.356354 277.129883,137.048065 285.203278,123.637329 
	C289.530884,116.448723 294.809143,109.988853 303.675537,107.228699 
	C305.731354,107.842094 307.516663,107.326050 309.606110,107.668961 
	C317.466278,109.180183 323.811249,113.403008 330.653259,116.383644 
	C335.182190,118.356621 338.873993,123.558449 344.651520,119.142586 
	C344.883881,118.965004 346.165344,119.522316 346.267487,119.916283 
	C346.903107,122.367546 350.129913,123.242226 349.956421,126.480789 
	C350.956909,128.250961 350.336243,129.838928 350.205200,131.743195 
	C350.213654,134.356583 349.893005,136.719086 348.248383,138.051208 
	C341.895935,143.196609 339.603790,151.639023 332.981140,156.525223 
	C332.396393,156.956665 332.188141,157.898346 331.525208,158.775543 
	C329.681335,161.668533 330.821350,164.611694 330.672363,167.817047 
z"/>
<path fill="#B4B4B4" opacity="1.000000" stroke="none" 
	d="
M295.596313,76.752518 
	C306.837585,83.071136 317.796295,89.203484 328.897034,95.668251 
	C325.187592,99.617805 320.368469,101.937065 316.174133,105.661972 
	C307.446991,104.142281 298.731018,102.948204 291.830902,96.962463 
	C290.332794,95.662895 289.096161,96.346359 287.854828,97.079437 
	C271.137665,106.952072 254.502029,116.964577 237.714951,126.716484 
	C223.455444,135.000076 209.024048,142.987671 194.680664,151.127274 
	C194.120621,151.445084 193.684464,151.981186 193.049500,152.742920 
	C192.014847,165.063736 192.681046,177.072861 192.719925,189.502899 
	C192.854340,192.889160 192.816055,195.846466 192.404388,199.035736 
	C189.300232,194.347702 189.415161,194.540894 184.275116,197.598709 
	C180.793884,199.669693 178.182526,203.429916 173.309814,203.199860 
	C173.019775,198.330368 172.991089,193.694916 172.950378,188.602783 
	C172.019028,181.028702 172.692352,173.882660 172.746338,166.302460 
	C173.485718,158.961792 172.079712,152.017700 173.831482,145.130325 
	C175.034622,140.400040 178.194992,137.256317 181.978119,135.067200 
	C209.341034,119.233658 236.877350,103.699951 264.253906,87.889694 
	C270.539825,84.259506 276.692139,80.408775 283.565613,77.097458 
	C284.631439,76.351677 285.531403,76.566185 286.644318,76.292618 
	C289.010834,76.069756 291.098846,76.008110 293.628967,76.021851 
	C294.443695,76.363876 294.857971,76.520088 295.596313,76.752518 
z"/>
<path fill="#4F4F4F" opacity="1.000000" stroke="none" 
	d="
M407.222290,245.633392 
	C407.031769,252.057358 406.872253,258.051208 407.124084,264.027740 
	C407.492737,272.776550 403.392731,278.565460 396.023773,282.777740 
	C375.049347,294.767334 354.174103,306.930420 333.257874,319.021820 
	C324.723816,323.955292 316.213013,328.930817 307.603363,333.728821 
	C306.754913,334.201660 305.130188,336.334747 304.106201,333.262268 
	C304.941467,329.853516 304.262024,326.719604 304.768433,323.262390 
	C305.124176,319.953827 306.273041,317.167023 305.999573,314.128662 
	C305.714996,310.966980 308.381805,309.426605 310.552734,308.172333 
	C324.940765,299.859680 339.447571,291.752899 353.894958,283.542664 
	C364.753082,277.372162 375.580231,271.147308 386.794312,264.940369 
	C387.924316,261.942505 387.262543,258.890656 387.710083,255.496246 
	C393.207397,248.836136 396.184601,241.097382 400.712189,234.310593 
	C402.399536,231.781235 405.099335,229.757828 405.516693,226.153046 
	C408.158142,225.811234 407.449005,227.621658 407.458160,228.711533 
	C407.504211,234.205582 407.569153,239.701157 407.222290,245.633392 
z"/>
<path fill="#BF0811" opacity="1.000000" stroke="none" 
	d="
M417.654236,161.795563 
	C430.341064,165.209229 438.003876,173.062347 441.682739,185.424713 
	C441.107605,188.587143 441.721100,191.485199 441.216919,194.712448 
	C441.330292,196.086365 441.995331,196.784775 441.454834,198.209915 
	C437.420990,208.846451 431.671906,217.516907 419.314941,219.502991 
	C418.157074,219.689072 417.340088,221.279892 415.463257,220.863251 
	C412.931610,220.194397 410.711609,220.580307 408.157166,220.676025 
	C407.426483,220.859573 407.045654,220.923218 406.375916,221.015640 
	C400.327393,220.857361 395.868866,217.793106 391.281921,214.216660 
	C390.573608,213.427322 390.290405,212.812103 390.239746,211.751343 
	C384.443604,207.339035 384.077087,200.704727 382.116882,194.396515 
	C381.125275,192.338486 381.626373,190.530426 381.750671,188.359314 
	C383.686920,184.439575 383.824310,180.471634 385.429626,176.824799 
	C388.935181,168.861282 395.665253,165.227020 403.353516,162.100754 
	C408.162994,160.793335 412.717682,161.792816 417.654236,161.795563 
z"/>
<path fill="#C90A0E" opacity="1.000000" stroke="none" 
	d="
M300.114502,334.960571 
	C299.427826,339.071289 296.111023,338.897064 293.268555,339.812683 
	C290.503662,339.221252 288.074097,339.590118 285.312866,339.649841 
	C276.209229,336.759064 268.837036,331.137451 260.776428,326.818329 
	C251.425919,321.808075 242.396393,316.198700 233.524429,311.022614 
	C237.066223,304.042450 240.572632,297.430878 244.371231,290.973145 
	C246.586411,287.207336 248.806091,285.725647 253.413010,286.901825 
	C260.575287,288.730438 267.968781,289.653351 275.651398,290.883820 
	C278.193054,290.242615 280.374023,290.536621 282.931152,290.876404 
	C283.314209,291.145782 283.453217,291.040222 283.524414,291.090698 
	C286.129425,291.865356 288.721985,291.346375 291.715576,291.504028 
	C294.472198,291.542023 296.797668,291.419708 299.465942,291.851440 
	C301.568024,294.183594 303.390991,296.220062 302.850586,299.637665 
	C302.148956,305.428467 302.626587,310.855072 302.660461,316.682373 
	C302.164398,319.838043 301.541962,322.584106 300.874695,325.730286 
	C300.041138,328.921661 300.830353,331.800720 300.114502,334.960571 
z"/>
<path fill="#DE1C0D" opacity="1.000000" stroke="none" 
	d="
M350.491577,231.772980 
	C350.636017,235.757980 351.966064,236.673264 355.197693,234.429260 
	C356.111298,233.794846 357.278290,233.525360 358.696655,233.154495 
	C361.954681,235.378693 360.946625,236.858856 358.645752,237.964447 
	C365.248840,236.758743 372.415253,237.357391 379.477112,236.378632 
	C383.358856,235.840607 387.384491,236.607574 391.088684,234.537521 
	C392.604004,233.690689 394.322754,234.250351 395.851776,235.758194 
	C394.325256,239.214157 392.460510,242.286575 390.956116,245.526306 
	C384.343933,259.765625 370.825378,264.062073 357.256836,268.832275 
	C354.887756,268.163544 352.836334,268.682678 350.476196,268.303101 
	C346.299713,267.274109 343.948395,264.078430 340.799164,262.125122 
	C338.179047,260.499969 335.642334,258.834503 332.296875,257.863708 
	C329.468445,257.134125 326.949432,257.740143 324.139282,257.162811 
	C314.561920,256.872955 311.610596,252.069412 315.142761,242.293488 
	C315.794037,240.089859 315.326752,238.214844 315.745819,236.026459 
	C317.955505,233.796356 320.457977,233.452393 322.926392,234.126938 
	C331.852234,236.566086 340.294739,234.538788 348.684326,231.675705 
	C349.163879,231.512039 349.661957,231.510925 350.491577,231.772980 
z"/>
<path fill="#E11C0B" opacity="1.000000" stroke="none" 
	d="
M245.348175,259.229462 
	C244.677444,258.826996 244.388687,258.637146 243.968109,258.217346 
	C242.170578,256.066742 240.321671,254.325638 238.253540,252.315338 
	C237.998749,252.080994 237.919754,252.067566 237.917542,252.027557 
	C237.340866,251.199280 237.127136,250.198471 236.214935,249.288025 
	C235.992798,249.097748 235.919937,249.080734 235.918884,249.043335 
	C235.779709,248.837189 235.641586,248.668457 235.249680,248.293365 
	C234.995895,248.087036 234.848953,248.085114 234.836136,248.012756 
	C234.713867,247.779755 234.604431,247.619080 234.454376,246.888596 
	C234.506592,246.150162 234.599442,245.981537 234.935455,245.660599 
	C235.655609,245.195343 236.108978,244.853317 236.668945,244.207794 
	C237.374603,243.370956 237.911346,242.760925 238.717163,242.003815 
	C239.152924,241.742889 239.319611,241.629028 239.644928,241.257263 
	C239.873413,240.824585 239.943268,240.649811 240.101349,240.206879 
	C240.307114,239.777939 240.424637,239.617203 240.726959,239.221771 
	C240.911743,238.987091 240.916260,238.927338 240.945267,238.919815 
	C241.468887,238.556885 241.489761,237.989548 241.760696,237.237183 
	C241.902237,237.003632 241.907959,236.920319 241.949036,236.912842 
	C242.494308,236.537231 242.488892,235.949921 242.782089,235.192627 
	C242.979904,234.785492 243.022690,234.610077 243.144455,234.175629 
	C243.418625,233.515060 243.493362,233.090744 243.328613,232.346497 
	C243.143311,231.279144 243.092911,230.511948 243.101974,229.363312 
	C243.883835,227.142136 243.254822,225.194443 243.901611,223.044647 
	C245.583755,222.947861 246.249619,224.011658 246.348206,225.149597 
	C246.673965,228.909500 248.882706,229.426590 252.146835,229.287918 
	C263.872131,228.789734 275.633789,229.767548 287.347321,228.284180 
	C290.945953,227.828476 294.626740,228.096664 298.239624,228.655655 
	C302.321960,229.287277 305.730255,228.221848 308.678711,224.896240 
	C310.052399,225.424652 310.823853,226.080795 310.968201,227.573761 
	C312.083344,231.582581 311.186005,235.373825 311.672241,239.518280 
	C311.188141,242.367981 310.569122,244.802917 309.881470,247.620758 
	C309.028412,249.963272 310.147675,252.327194 308.360962,254.485199 
	C307.128967,260.033386 306.720520,259.991882 301.577789,259.242859 
	C295.842468,258.407532 290.026642,258.000854 284.209900,257.865356 
	C274.898651,257.648468 265.559448,258.470398 256.278717,257.045349 
	C253.323730,256.591583 250.719635,257.733521 247.848267,259.389099 
	C246.862228,259.679688 246.291061,259.644409 245.348175,259.229462 
z"/>
<path fill="#F72F0A" opacity="1.000000" stroke="none" 
	d="
M221.563461,165.009354 
	C222.258087,167.519058 217.548264,166.875900 218.808182,169.116364 
	C219.903107,171.063416 222.390427,168.987946 224.264130,168.906189 
	C231.564560,168.587692 238.767075,169.662308 246.013931,170.029266 
	C249.952667,170.228714 253.850128,169.032104 257.815674,169.928391 
	C259.355591,170.276459 260.837921,169.795670 260.975922,167.345016 
	C262.242432,166.179153 263.270355,166.825638 264.567841,167.697952 
	C270.889313,170.762070 277.440399,168.218475 283.733582,169.831100 
	C291.175415,171.738068 299.078400,170.343826 306.686462,171.896729 
	C309.199524,172.409698 311.808899,172.088058 314.331696,170.643326 
	C316.224762,169.559219 318.733429,169.160339 320.853333,171.438522 
	C318.352264,174.300629 315.678864,176.751785 313.143707,179.338409 
	C310.331909,182.207321 307.768951,182.278183 304.839447,179.388367 
	C303.149567,177.721359 301.941589,174.823441 298.334717,175.930649 
	C296.904144,177.940994 297.741119,180.003555 297.664795,182.288757 
	C298.327179,183.031677 298.854919,183.463196 299.691101,184.044281 
	C300.034119,184.495529 300.068756,184.797226 299.897888,185.506149 
	C296.163269,188.770508 291.892181,188.721832 287.811859,188.397705 
	C283.150970,188.027496 278.505341,188.041290 273.850281,187.940826 
	C264.874542,187.747192 255.915970,187.930237 246.920441,187.193893 
	C235.482956,186.257660 223.985718,187.013077 212.672256,189.339310 
	C207.847717,190.331329 206.608078,189.428802 205.921295,183.865524 
	C205.781906,183.137314 205.689804,182.853958 205.385071,182.177505 
	C207.735504,173.543259 212.817093,167.708588 221.563461,165.009354 
z"/>
<path fill="#686868" opacity="1.000000" stroke="none" 
	d="
M316.265625,106.059410 
	C315.868561,105.177246 315.007385,104.352249 315.987213,103.731506 
	C320.088043,101.133560 323.471466,97.397850 328.668152,95.975029 
	C341.989319,103.433479 354.879150,110.974312 367.908905,118.265068 
	C378.402039,124.136475 388.806366,130.143204 399.070587,136.407883 
	C403.953491,139.388077 406.115021,143.802383 407.054199,149.491074 
	C407.878510,151.233505 407.377014,152.724731 407.247498,154.555389 
	C401.585846,154.761810 396.113068,154.179855 390.201172,155.055206 
	C386.912262,156.140503 387.795013,153.752487 387.159790,152.265869 
	C386.903870,151.983780 386.996704,151.999451 386.988647,152.045837 
	C386.810120,151.805206 386.593536,151.558685 386.155518,151.178391 
	C375.073853,145.925781 365.093750,139.208847 354.338684,133.162781 
	C352.929779,131.067139 353.799042,128.930374 353.334045,126.533913 
	C350.961578,121.173897 348.339417,116.487709 343.122345,113.465912 
	C341.023956,112.573303 341.565948,114.113708 341.519440,114.989189 
	C341.447021,116.353165 341.411682,117.620621 339.248474,117.211426 
	C331.103333,114.286888 324.349243,109.212738 316.265625,106.059410 
z"/>
<path fill="#F22A09" opacity="1.000000" stroke="none" 
	d="
M205.877106,182.219238 
	C206.449402,182.893539 206.883423,183.812103 206.973785,184.763306 
	C207.270981,187.891541 207.854904,189.172455 211.685303,187.664703 
	C218.537170,184.967529 226.086548,185.346542 233.287079,185.174667 
	C250.057571,184.774292 266.822479,186.260590 283.622711,186.225967 
	C288.907654,186.215073 294.093079,186.423447 299.636169,185.148575 
	C300.176788,184.842987 300.351471,184.703430 300.798279,184.759796 
	C301.235474,184.989456 301.400452,185.023209 301.805603,185.135315 
	C302.202362,185.281784 302.358917,185.349899 302.743652,185.301758 
	C303.445801,185.411911 303.919708,185.638336 304.670502,185.921844 
	C305.128906,185.854370 305.310486,185.729797 305.762482,185.794876 
	C306.208771,186.012772 306.384674,186.041016 306.817261,186.143265 
	C307.542389,186.498520 308.088715,186.494843 308.822052,186.772430 
	C313.085724,187.822983 316.084778,190.318954 318.906982,193.596405 
	C322.071503,199.913193 321.471710,201.092728 314.657898,201.163483 
	C304.881165,201.265015 295.094360,200.659668 285.325897,200.996475 
	C272.700378,201.431793 260.088196,200.705170 247.474472,200.968994 
	C238.355057,201.159714 229.250168,201.539978 220.123657,200.985107 
	C215.156555,200.683105 210.193939,200.907791 205.266525,202.124222 
	C202.245514,202.870010 198.971970,203.162476 196.079224,200.364044 
	C196.770782,194.474243 202.273956,192.660965 205.060577,188.250885 
	C205.831284,186.142303 205.303833,184.281967 205.877106,182.219238 
z"/>
<path fill="#D9150C" opacity="1.000000" stroke="none" 
	d="
M246.873184,259.337006 
	C248.833603,254.675903 252.791718,254.500320 256.308746,255.141571 
	C263.770905,256.502106 271.261475,256.240692 278.679901,255.851532 
	C286.150482,255.459656 293.506561,258.048218 300.959534,256.289398 
	C301.372833,256.191864 302.081238,256.343414 302.316956,256.642914 
	C306.739563,262.262482 306.299835,256.334869 307.820923,254.209564 
	C308.278412,253.835495 308.470612,253.708405 308.823456,253.887360 
	C309.027710,256.291840 309.070618,258.390198 307.789978,260.718628 
	C305.898285,262.472046 305.946594,264.556549 305.261719,266.682617 
	C305.099426,266.967010 305.099030,267.070404 305.048340,267.080475 
	C303.143982,269.124115 301.796570,271.557098 302.086487,274.254333 
	C302.579956,278.845703 301.077881,282.360931 298.092041,285.794983 
	C296.399994,287.741089 295.262177,287.972595 293.758636,286.285248 
	C291.080963,283.280243 288.463409,283.335754 285.621368,285.955444 
	C285.005768,286.522888 284.058289,287.068207 283.349365,286.751160 
	C278.778412,284.706757 274.239380,287.572937 269.357117,286.566162 
	C263.474152,286.823456 259.020966,282.738617 253.389450,282.852570 
	C250.191956,282.917328 248.219604,278.225464 249.269440,274.068176 
	C249.894653,271.592407 250.296646,269.248932 249.374908,266.422485 
	C249.173660,265.884552 249.119125,265.713654 249.000366,265.281433 
	C248.439316,263.145172 247.393295,261.495056 246.873184,259.337006 
z"/>
<path fill="#EE270A" opacity="1.000000" stroke="none" 
	d="
M195.611099,200.089539 
	C199.584518,200.882538 203.206879,201.153702 206.971893,199.914886 
	C212.956543,197.945709 219.214462,198.905090 225.298569,199.150970 
	C230.743225,199.370987 236.123489,199.260620 241.554718,199.171402 
	C250.986710,199.016464 260.437469,199.001251 269.914001,199.574051 
	C276.539917,199.974548 283.453735,198.975983 290.245575,199.032837 
	C299.294434,199.108582 308.340607,199.514114 317.389465,199.587646 
	C322.350922,199.627991 318.243164,196.250443 319.038757,194.295227 
	C321.158752,195.028717 322.079773,197.048767 322.935364,199.453613 
	C324.488861,202.787643 322.464813,206.238968 324.483398,209.400970 
	C326.184601,210.876709 326.114136,212.183762 324.672699,213.281128 
	C320.968170,216.101334 313.625580,215.249466 310.226562,211.380508 
	C310.005676,211.067505 309.669373,210.998245 309.535400,210.890869 
	C307.618225,208.950012 306.418121,206.732925 305.127930,204.233063 
	C304.891541,203.709869 304.718475,203.526764 304.471863,203.513107 
	C303.806396,203.476257 303.980377,204.088043 304.324524,203.517090 
	C304.327087,203.512787 304.445068,203.559937 304.807129,203.927460 
	C305.001282,204.629532 304.993958,205.062912 304.852509,205.849945 
	C303.760834,212.062302 303.212616,212.184448 297.327179,212.083405 
	C288.908569,211.938889 280.482788,211.512009 272.051697,212.575958 
	C267.778748,213.115204 263.621460,211.535278 259.777283,209.676804 
	C258.101318,208.866577 256.713226,207.660599 254.414612,208.927124 
	C253.598312,209.390717 253.142349,209.693146 252.387115,210.019958 
	C251.372345,210.591568 250.557602,210.757187 249.364746,210.737091 
	C249.052078,210.802979 248.582901,210.963882 248.337860,211.002106 
	C240.409241,215.307922 232.332336,213.251785 224.471893,212.091522 
	C220.997269,211.578659 217.710754,211.168030 214.212708,211.587769 
	C208.293594,212.298050 202.301163,211.644562 196.357040,212.255524 
	C194.669632,212.428986 193.041122,211.994965 191.983017,209.860443 
	C191.748657,209.163086 191.659531,208.882294 191.814026,208.232849 
	C192.067017,207.674515 192.076431,207.484818 192.150253,207.017609 
	C192.645096,206.045013 192.422379,205.236313 192.760468,204.254944 
	C192.916306,204.011856 192.923019,203.929321 192.964050,203.923798 
	C193.271698,203.746750 193.496857,203.531799 193.817444,203.082932 
	C194.414597,202.002304 194.874847,201.112183 195.611099,200.089539 
z"/>
<path fill="#E9240B" opacity="1.000000" stroke="none" 
	d="
M254.364014,209.133896 
	C254.539902,207.922134 255.797806,206.589447 256.586304,207.246613 
	C260.080444,210.158829 265.038300,207.840958 268.389587,210.841217 
	C269.031036,211.415451 269.812622,211.904892 270.642914,211.537064 
	C278.123016,208.223312 286.028534,211.515610 293.627655,210.033249 
	C294.744354,209.815430 296.098450,209.693069 297.085266,210.120682 
	C301.876953,212.196991 303.247650,209.749329 303.736938,205.286102 
	C307.101471,205.594971 307.759125,208.111542 308.209351,210.624008 
	C308.665375,213.168365 308.480957,215.775970 308.673767,218.741425 
	C309.036011,220.824677 307.276062,222.591095 309.028534,224.588501 
	C307.599396,226.093613 308.924988,227.368683 308.909760,228.588623 
	C308.893463,229.892761 308.619202,230.254608 306.916656,230.394073 
	C299.828796,230.974716 292.736359,229.077820 285.773956,230.139893 
	C276.842529,231.502350 267.932770,230.651443 259.022217,230.988403 
	C257.036652,231.063477 255.045776,230.989044 253.057449,231.001617 
	C245.446289,231.049744 245.446304,231.052521 244.476807,223.347839 
	C244.020950,222.881668 243.769043,222.753967 243.733353,222.261963 
	C243.267426,219.909958 243.909927,218.666153 245.952896,218.035873 
	C248.737976,217.176666 251.490097,216.210648 254.588562,215.127197 
	C256.307465,214.156433 257.800110,214.587296 259.527832,214.944702 
	C262.722778,217.212738 265.776123,218.655014 269.820801,217.754959 
	C271.463623,219.593201 273.486816,218.830017 274.335388,218.940582 
	C273.691071,218.892075 271.998657,219.379257 270.487366,217.739197 
	C266.266907,216.014664 262.783569,213.632568 259.627197,210.915680 
	C258.044495,209.553375 256.577301,209.044861 254.364014,209.133896 
z"/>
<path fill="#E9240B" opacity="1.000000" stroke="none" 
	d="
M191.934647,209.290466 
	C193.183121,210.228973 194.169312,211.299454 195.952103,210.827225 
	C203.532623,208.819321 211.349045,210.446808 219.068008,209.282227 
	C223.648285,208.591187 228.524384,210.904022 233.454086,211.299896 
	C238.159882,211.677795 242.671371,211.834442 247.681122,211.029068 
	C247.420502,212.631744 245.898590,212.662628 244.548065,213.222778 
	C242.878967,213.915115 240.603455,214.504410 240.875061,217.575180 
	C240.084442,221.361359 240.739166,224.821259 240.267578,228.640259 
	C240.091171,229.033661 240.085297,229.139435 240.033340,229.149719 
	C237.991592,234.172882 230.637222,238.955627 224.742310,237.871841 
	C217.976273,236.627899 211.222153,237.347946 204.506805,236.696396 
	C200.860641,236.342621 196.752380,236.868271 193.968140,232.874741 
	C193.366653,231.441925 193.583710,230.321701 193.408386,228.853622 
	C193.394867,226.138748 192.451889,223.949203 192.202652,221.331406 
	C191.965210,221.031952 191.996063,221.001831 191.982941,221.015717 
	C191.833511,220.766693 191.697235,220.503784 191.535706,219.797409 
	C191.551804,216.098633 191.390579,212.841354 191.934647,209.290466 
z"/>
<path fill="#686868" opacity="1.000000" stroke="none" 
	d="
M172.982666,203.432755 
	C179.477890,199.825043 184.792267,194.956680 191.274353,191.134521 
	C192.470642,193.562332 191.722305,196.036377 191.984283,198.821274 
	C189.702194,204.977448 187.814987,210.785660 188.041901,217.505798 
	C188.979797,219.561554 188.257416,221.349014 188.643082,223.391922 
	C189.596588,226.132187 190.495346,228.507523 190.022263,231.543503 
	C190.980255,234.057648 190.315338,236.258896 190.231033,238.824341 
	C187.011703,246.076828 180.903641,251.265778 179.543228,258.976227 
	C179.343826,260.106415 179.132187,261.234406 178.880920,262.778259 
	C178.075562,265.896698 178.744385,268.669891 178.225128,271.750763 
	C177.910019,273.503937 178.285019,275.413544 176.257355,275.470001 
	C174.980209,275.505585 175.041992,273.919830 174.740616,272.815521 
	C174.030579,270.213837 172.592514,267.795593 172.950668,264.543640 
	C171.965652,258.358917 172.710510,252.539520 172.770203,246.304993 
	C172.960907,231.878540 172.938889,217.889099 172.982666,203.432755 
z"/>
<path fill="#D5160F" opacity="1.000000" stroke="none" 
	d="
M180.787735,274.301605 
	C181.020447,273.914948 181.065170,273.486389 181.140411,273.284485 
	C181.820923,270.620514 181.359192,268.117096 181.504059,265.218048 
	C181.521957,263.394379 181.457291,261.988586 181.789383,260.224457 
	C182.451660,258.656036 182.893372,257.448608 183.633255,256.100586 
	C185.965088,257.122253 188.064392,257.595917 190.484055,257.433502 
	C196.724731,257.014648 202.991470,256.900269 209.159134,258.252319 
	C212.247986,258.929474 214.629272,258.507233 215.890335,255.165939 
	C216.347565,253.954498 217.261673,252.898132 219.093140,253.054962 
	C219.748611,257.560608 219.043152,261.854065 220.126160,266.482513 
	C220.175232,273.437408 214.462067,276.981171 212.075287,282.290344 
	C210.876755,284.956421 208.744476,287.210938 207.606277,289.894104 
	C205.851395,294.031128 203.397537,293.618134 200.342102,291.684723 
	C194.007690,287.676483 187.661591,283.686737 181.162308,279.384125 
	C180.092789,277.693298 180.640076,276.158417 180.787735,274.301605 
z"/>
<path fill="#E11C0B" opacity="1.000000" stroke="none" 
	d="
M219.049210,252.904236 
	C214.429626,260.902008 214.467651,260.629791 205.003937,259.307770 
	C199.469162,258.534607 193.754791,258.437012 188.201675,259.514954 
	C185.551315,260.029388 183.928955,259.937103 183.957642,256.360321 
	C183.980820,255.799026 184.030228,255.638046 184.153061,255.235413 
	C184.809998,254.263580 185.191147,253.421371 185.745850,252.279343 
	C185.975571,251.811691 186.025009,251.640121 186.156876,251.213715 
	C186.349152,250.775604 186.458984,250.592316 186.766891,250.157104 
	C188.964828,246.741852 190.964661,243.578537 193.093918,240.071091 
	C193.852432,237.384430 193.280350,234.981903 193.819122,232.306885 
	C196.627686,235.068893 200.448822,234.350067 203.715622,234.872849 
	C210.811829,236.008392 218.278641,233.237991 225.200165,236.775406 
	C229.373108,233.295563 236.882690,236.053909 239.628632,229.203339 
	C239.870148,235.483795 233.413452,244.730881 227.140259,246.767685 
	C224.511795,247.621078 222.508530,248.996307 220.290802,250.929352 
	C219.459412,251.542404 219.516434,252.216217 219.049210,252.904236 
z"/>
<path fill="#E9240B" opacity="1.000000" stroke="none" 
	d="
M310.017212,211.444916 
	C313.618500,212.947845 317.264557,215.250275 321.169708,211.870499 
	C322.355896,210.843918 324.983459,214.420258 324.989624,210.197266 
	C328.017059,209.502686 331.059052,209.667511 334.423218,209.504089 
	C335.409454,209.437744 335.994781,209.850021 336.950958,209.681305 
	C337.450897,209.666809 337.648407,209.734222 338.104980,209.977325 
	C338.364014,210.153046 338.387451,210.078430 338.424316,210.091507 
	C339.477478,210.521088 340.622650,210.372849 341.766541,211.213104 
	C345.923615,213.580185 348.237793,216.823914 349.046753,221.584274 
	C348.709503,224.297180 349.234772,226.447891 350.628815,228.734802 
	C350.870758,229.757202 350.912720,230.505035 350.888306,231.622711 
	C341.915405,236.940613 332.577362,238.617691 322.700104,235.466400 
	C320.588501,234.792709 318.874634,236.385727 316.505676,235.985382 
	C315.231934,235.450836 315.606781,234.565872 315.504364,233.523956 
	C315.500031,232.855301 315.541992,232.482742 315.684570,231.849915 
	C315.646240,231.232697 315.549683,230.887772 315.336487,230.299957 
	C313.622833,226.745850 311.098602,223.924896 310.116089,219.934509 
	C310.827393,217.942459 310.396332,216.276505 310.312683,214.361023 
	C310.122406,213.330505 310.075592,212.576416 310.017212,211.444916 
z"/>
<path fill="#E9240B" opacity="1.000000" stroke="none" 
	d="
M396.261230,235.976105 
	C393.858124,235.969986 391.529541,234.621704 389.757080,237.265350 
	C389.358276,237.860184 387.913025,238.024597 386.984528,237.950165 
	C379.654816,237.362610 372.465515,239.371429 365.145966,239.036713 
	C362.210632,238.902481 359.216461,238.565323 356.495972,240.505554 
	C355.253357,241.391785 353.250000,241.334961 352.712982,239.569778 
	C352.118469,237.615433 354.397278,238.074677 355.349152,237.396912 
	C356.816620,236.351990 360.896240,238.281937 359.216370,233.531754 
	C359.064209,233.220474 359.504822,233.067703 359.731384,233.012421 
	C360.751099,232.333694 361.796143,232.137512 362.745972,231.212128 
	C362.949921,230.990387 362.968201,230.969696 362.979431,230.961670 
	C363.143188,230.819031 363.295715,230.684418 363.702820,230.381500 
	C364.124908,230.160583 364.292450,230.107971 364.719971,230.012711 
	C365.546844,229.979782 366.077911,229.862030 366.774780,229.368439 
	C367.001129,229.207886 367.458923,229.045120 367.697754,229.000580 
	C368.101105,228.822510 368.265625,228.688995 368.691833,228.375183 
	C369.399994,228.132278 369.846436,228.069702 370.630005,227.969910 
	C374.613800,228.137985 377.548859,226.386047 380.670410,224.244919 
	C380.908813,223.998596 380.927765,223.918930 380.968719,223.919281 
	C381.616119,223.595993 382.148865,223.185059 382.710510,222.319077 
	C384.337402,220.093048 385.804260,218.166687 387.585205,216.124100 
	C388.380707,215.557846 388.335022,214.895142 388.787903,214.131531 
	C389.005890,213.917389 389.007324,214.008270 388.961914,214.009918 
	C389.201416,213.691605 389.486542,213.371841 390.074860,212.945099 
	C395.459045,215.394958 400.540283,217.952026 405.854279,220.776764 
	C403.843109,225.653732 400.773834,229.713959 397.333496,233.877716 
	C396.693939,234.151215 396.485657,234.387299 396.598328,234.867889 
	C396.698975,235.300186 396.598633,235.593842 396.261230,235.976105 
z"/>
<path fill="#BF0811" opacity="1.000000" stroke="none" 
	d="
M386.002075,212.668198 
	C375.172607,211.196487 372.822449,202.380173 370.103149,193.387924 
	C369.083344,190.273804 369.645264,187.435165 369.796692,184.217255 
	C371.461731,180.898422 371.432220,177.576050 373.067017,174.637207 
	C377.936371,165.883408 384.183441,159.028091 394.946777,157.172699 
	C397.855103,158.200272 400.714233,156.530350 403.022766,158.646088 
	C395.746948,162.163879 389.175446,165.920471 384.597351,172.713806 
	C382.059509,176.479721 380.553253,180.448593 379.184143,184.921097 
	C378.085907,188.358353 378.669281,191.652344 378.614868,195.289825 
	C380.591644,201.445114 382.548615,207.200241 386.002075,212.668198 
z"/>
<path fill="#4F4F4F" opacity="1.000000" stroke="none" 
	d="
M217.976135,302.096985 
	C215.689453,300.037628 213.215775,298.993530 210.744064,298.051147 
	C206.964325,296.609924 207.797668,294.382446 209.457031,291.903961 
	C212.181473,287.834625 215.030533,283.834259 216.437057,278.725342 
	C223.428665,281.925598 229.880051,285.724579 236.352417,289.521393 
	C238.815308,290.966156 239.396164,291.874329 237.496246,294.331299 
	C235.287231,297.187958 233.592148,300.407440 232.463486,303.951569 
	C231.372589,307.377167 229.102692,308.677795 225.626175,306.416656 
	C223.277466,304.889069 220.761703,303.618286 217.976135,302.096985 
z"/>
<path fill="#D5160F" opacity="1.000000" stroke="none" 
	d="
M269.004883,286.452087 
	C271.162567,286.045685 273.209717,285.962280 275.184143,284.655182 
	C276.906219,283.515106 279.359314,283.365631 280.912689,284.436157 
	C283.396790,286.148132 284.153870,285.539703 285.803162,283.250641 
	C287.934021,280.293243 292.559296,281.875061 296.548553,286.745026 
	C296.798584,284.276306 294.843964,280.660858 299.912476,281.396576 
	C301.477173,281.623718 300.929352,278.605927 300.958038,277.051544 
	C301.025665,273.382965 300.809692,269.681061 304.643829,267.139832 
	C304.315125,269.147064 303.632599,271.203552 302.884521,273.628082 
	C302.076843,276.811920 302.775543,279.698364 302.158508,282.887177 
	C302.101471,286.994659 299.512085,288.104340 296.284424,288.998322 
	C295.824066,289.229156 295.637726,289.328644 295.140442,289.369385 
	C293.382629,288.885590 291.923553,288.925507 290.153717,289.280579 
	C289.641541,289.328003 289.434082,289.290405 288.971130,289.066315 
	C288.715637,288.879822 288.546844,288.976257 288.468018,288.919403 
	C287.329651,288.413483 286.209229,288.510712 284.680115,288.495911 
	C281.992371,288.447357 279.722595,288.604706 277.115051,288.137024 
	C276.771545,287.883789 276.289337,287.926208 276.062073,287.842987 
	C273.776611,287.186951 271.659698,287.695862 269.255005,287.207031 
	C268.924622,286.993561 269.016876,286.931671 269.004883,286.452087 
z"/>
<path fill="#D5160F" opacity="1.000000" stroke="none" 
	d="
M249.144501,266.475098 
	C251.807465,267.910919 251.050034,270.415222 250.546600,272.865234 
	C249.115524,279.829620 250.559464,281.623291 257.276550,281.126404 
	C258.512970,281.034973 259.776855,281.116455 260.475372,282.110138 
	C262.465454,284.941132 265.566376,284.888214 268.718384,285.720886 
	C268.992889,285.972504 268.802277,286.213379 268.703033,286.330566 
	C266.609192,286.518280 264.614716,286.531128 262.256653,286.213440 
	C257.949707,285.506104 253.948898,285.268860 250.523499,282.857147 
	C249.496887,282.134369 248.827957,281.329132 249.076782,279.652740 
	C247.939301,277.537750 248.703888,275.581970 248.806610,273.308685 
	C249.055496,270.896790 249.058151,268.895752 249.144501,266.475098 
z"/>
<path fill="#F2D6D5" opacity="1.000000" stroke="none" 
	d="
M192.947113,189.471497 
	C191.419067,188.409027 192.021408,186.494354 192.030487,184.754974 
	C192.084595,174.393143 192.233459,164.031799 192.629471,153.370285 
	C192.939484,165.050568 192.970551,177.030869 192.947113,189.471497 
z"/>
<path fill="#E4938E" opacity="1.000000" stroke="none" 
	d="
M308.900757,218.691071 
	C307.389862,214.543915 308.158661,209.294312 304.303345,205.181503 
	C303.928070,204.687073 303.950439,204.378876 304.091553,203.844849 
	C304.209869,203.306274 304.298584,203.000015 304.752441,203.002625 
	C307.135651,205.218292 308.744446,207.381668 309.401123,210.462906 
	C308.522034,213.233734 309.180847,215.768555 308.900757,218.691071 
z"/>
<path fill="#F2D6D5" opacity="1.000000" stroke="none" 
	d="
M338.125854,209.750824 
	C338.157776,210.149536 337.951538,210.146027 337.436096,210.132828 
	C336.929138,210.214737 336.731384,210.306351 336.284729,210.186005 
	C332.613220,209.624939 329.162872,210.698868 325.373901,209.821045 
	C322.024139,207.349258 322.870819,203.908417 322.856598,200.242981 
	C324.819946,200.656174 324.183075,202.456223 323.950348,203.661026 
	C322.990234,208.631744 325.104980,209.702942 329.616516,209.064880 
	C332.306396,208.684418 335.126282,209.223114 338.125854,209.750824 
z"/>
<path fill="#F2D6D5" opacity="1.000000" stroke="none" 
	d="
M407.412781,245.888580 
	C406.846924,239.544952 406.686523,233.018631 406.178009,226.239136 
	C408.092316,223.843445 408.031372,225.712646 408.019562,227.290878 
	C407.973572,233.429367 407.888641,239.567581 407.412781,245.888580 
z"/>
<path fill="#F2D6D5" opacity="1.000000" stroke="none" 
	d="
M172.548950,166.068542 
	C172.982025,172.968796 173.025467,180.083893 173.003632,187.672562 
	C170.785278,184.144501 172.308289,179.848419 172.005066,175.700821 
	C171.777039,172.582092 172.088196,169.423965 172.548950,166.068542 
z"/>
<path fill="#DE1C0D" opacity="1.000000" stroke="none" 
	d="
M380.545074,224.008286 
	C378.909363,227.943024 375.267548,228.391144 371.204041,228.189362 
	C374.038513,226.627792 377.109924,225.322876 380.545074,224.008286 
z"/>
<path fill="#E4938E" opacity="1.000000" stroke="none" 
	d="
M218.761230,253.459381 
	C218.982651,252.453735 219.220612,251.911530 219.713715,251.218857 
	C220.424026,256.173676 219.425095,261.352936 220.473679,266.659821 
	C218.473236,262.714905 218.963638,258.281891 218.761230,253.459381 
z"/>
<path fill="#F2D6D5" opacity="1.000000" stroke="none" 
	d="
M172.584076,246.068268 
	C173.038589,251.643463 173.094254,257.418945 173.065887,263.664917 
	C170.830765,258.263824 172.273071,252.232071 172.584076,246.068268 
z"/>
<path fill="#E4938E" opacity="1.000000" stroke="none" 
	d="
M302.864777,316.620117 
	C301.660370,311.641754 302.358551,306.131775 302.518219,300.333771 
	C302.839294,305.395599 302.891022,310.771881 302.864777,316.620117 
z"/>
<path fill="#E4938E" opacity="1.000000" stroke="none" 
	d="
M270.216370,217.521881 
	C272.715637,217.984695 275.411255,217.629486 278.412415,220.185913 
	C275.045319,219.797913 272.391693,221.260345 270.304413,217.974579 
	C270.219086,217.578583 270.192810,217.534393 270.216370,217.521881 
z"/>
<path fill="#D5160F" opacity="1.000000" stroke="none" 
	d="
M238.013214,252.425995 
	C241.019424,252.628372 242.662369,254.718262 243.845810,257.649658 
	C240.893173,257.369812 239.400406,255.137253 238.013214,252.425995 
z"/>
<path fill="#DE1C0D" opacity="1.000000" stroke="none" 
	d="
M350.895020,228.627441 
	C347.749481,227.635315 347.582214,225.248398 348.818329,222.213013 
	C350.382965,223.854248 350.362427,226.142380 350.895020,228.627441 
z"/>
<path fill="#E4938E" opacity="1.000000" stroke="none" 
	d="
M417.897522,161.624969 
	C413.601990,161.595062 409.125427,161.506500 404.181763,162.183197 
	C408.242157,159.766891 413.055878,161.768555 417.897522,161.624969 
z"/>
<path fill="#F2D6D5" opacity="1.000000" stroke="none" 
	d="
M193.924744,231.695801 
	C193.880539,234.362564 194.532181,236.779938 193.445541,239.420380 
	C193.161316,236.078491 193.099289,232.430023 192.791046,228.555420 
	C192.917709,228.067184 193.290588,227.805099 193.627106,228.225708 
	C192.892853,229.800049 193.734253,230.569000 193.924744,231.695801 
z"/>
<path fill="#E4938E" opacity="1.000000" stroke="none" 
	d="
M192.201019,208.713196 
	C191.535400,212.303467 191.790924,215.645050 191.953812,219.435028 
	C191.846054,220.048859 191.731705,220.211151 191.392975,220.177643 
	C191.197739,216.073059 191.226868,212.164246 191.656799,208.059814 
	C192.084091,208.053848 192.110550,208.243515 192.201019,208.713196 
z"/>
<path fill="#E4938E" opacity="1.000000" stroke="none" 
	d="
M311.866089,239.481354 
	C310.421143,236.310242 311.636963,232.492554 310.979401,228.352661 
	C313.097290,231.451111 311.376770,235.336182 311.866089,239.481354 
z"/>
<path fill="#FC360C" opacity="1.000000" stroke="none" 
	d="
M316.241455,231.730682 
	C316.070648,233.048126 316.052490,234.117401 316.073242,235.585617 
	C315.958740,237.754227 315.805298,239.523911 315.442139,241.597580 
	C315.184113,238.251953 315.135742,234.602341 315.162140,230.502502 
	C315.484528,230.200851 315.689514,230.394531 315.956421,230.818848 
	C316.172058,231.163742 316.283081,231.323135 316.241455,231.730682 
z"/>
<path fill="#E4938E" opacity="1.000000" stroke="none" 
	d="
M403.334137,158.975983 
	C401.011871,156.668655 398.301147,157.980270 395.660095,157.376312 
	C398.063171,157.156250 400.793396,156.911865 403.503601,157.052490 
	C405.681580,157.165527 405.667084,158.021759 403.334137,158.975983 
z"/>
<path fill="#E4938E" opacity="1.000000" stroke="none" 
	d="
M249.799011,162.511932 
	C249.832581,162.933151 249.652863,162.982651 249.202927,163.104126 
	C246.121033,163.858444 243.264847,163.332733 240.006561,163.463196 
	C239.325256,163.307251 239.071198,163.177155 238.787567,162.619965 
	C242.367233,162.175308 245.976471,162.157761 249.799011,162.511932 
z"/>
<path fill="#E4938E" opacity="1.000000" stroke="none" 
	d="
M378.760712,195.228363 
	C377.747711,192.386169 377.868896,189.089874 378.663940,185.445557 
	C378.834045,188.338943 378.822906,191.569061 378.760712,195.228363 
z"/>
<path fill="#F2D6D5" opacity="1.000000" stroke="none" 
	d="
M240.475632,228.840454 
	C240.099213,225.501526 240.107254,221.969406 240.465637,218.194412 
	C240.830673,221.516785 240.845383,225.082016 240.475632,228.840454 
z"/>
<path fill="#D5160F" opacity="1.000000" stroke="none" 
	d="
M246.658066,258.994507 
	C248.024811,260.618713 249.372757,262.123566 248.958572,264.650757 
	C247.694046,263.230896 246.451935,261.441681 245.088013,259.334656 
	C245.417358,259.009613 245.868500,259.002350 246.658066,258.994507 
z"/>
<path fill="#E4938E" opacity="1.000000" stroke="none" 
	d="
M305.388092,266.796692 
	C304.714905,264.653992 305.620941,262.792938 307.396332,261.150604 
	C306.901123,262.944977 307.159454,265.100433 305.388092,266.796692 
z"/>
<path fill="#E11C0B" opacity="1.000000" stroke="none" 
	d="
M193.706589,228.456024 
	C193.368469,228.899506 193.146179,228.890594 192.734360,228.605469 
	C192.368439,226.174072 192.192062,224.018860 191.990448,221.447800 
	C193.635010,223.075928 194.143097,225.429382 193.706589,228.456024 
z"/>
<path fill="#686868" opacity="1.000000" stroke="none" 
	d="
M304.607666,323.108368 
	C304.845642,326.031799 305.464447,329.198029 304.377563,332.613953 
	C303.824249,329.714478 303.707977,326.515167 304.607666,323.108368 
z"/>
<path fill="#F2D6D5" opacity="1.000000" stroke="none" 
	d="
M387.494354,255.297302 
	C387.793762,258.174316 387.719635,261.235352 387.406494,264.615234 
	C387.151917,261.783173 387.136383,258.632233 387.494354,255.297302 
z"/>
<path fill="#F2D6D5" opacity="1.000000" stroke="none" 
	d="
M339.117004,117.381973 
	C342.321869,117.061684 340.766296,114.521233 340.970551,113.055473 
	C341.253876,111.021629 341.892395,111.209450 342.991364,112.805473 
	C341.225250,113.560234 341.999451,115.012619 342.037720,115.922508 
	C342.138611,118.319366 340.791046,118.092979 339.117004,117.381973 
z"/>
<path fill="#F2D6D5" opacity="1.000000" stroke="none" 
	d="
M300.257263,335.091461 
	C299.992004,332.432709 300.113098,329.553802 300.532043,326.402649 
	C300.767792,329.044067 300.705688,331.957672 300.257263,335.091461 
z"/>
<path fill="#F2D6D5" opacity="1.000000" stroke="none" 
	d="
M178.398956,271.924744 
	C178.113007,269.327637 178.212204,266.549225 178.573517,263.481964 
	C178.818466,266.043213 178.801300,268.893372 178.398956,271.924744 
z"/>
<path fill="#F2D6D5" opacity="1.000000" stroke="none" 
	d="
M302.313599,283.045776 
	C301.988831,280.322845 302.061340,277.403503 302.476379,274.240143 
	C303.053314,276.950500 303.324280,279.905365 302.313599,283.045776 
z"/>
<path fill="#E4938E" opacity="1.000000" stroke="none" 
	d="
M441.387878,194.904526 
	C441.036285,192.145493 441.083374,189.210785 441.473816,186.011246 
	C441.806946,188.740555 441.796753,191.734711 441.387878,194.904526 
z"/>
<path fill="#F2D6D5" opacity="1.000000" stroke="none" 
	d="
M369.646881,183.999954 
	C370.073975,186.589966 370.112549,189.370712 370.041382,192.600693 
	C368.104553,190.218643 369.140839,187.169754 369.646881,183.999954 
z"/>
<path fill="#E4938E" opacity="1.000000" stroke="none" 
	d="
M330.902069,167.737091 
	C329.413727,165.281921 329.610077,162.311371 330.862518,159.132339 
	C331.165588,161.724823 331.085724,164.501633 330.902069,167.737091 
z"/>
<path fill="#F2D6D5" opacity="1.000000" stroke="none" 
	d="
M299.770935,291.689758 
	C297.511292,292.073486 295.210480,292.028961 292.476837,291.947845 
	C291.845245,291.795013 291.646515,291.678802 291.714111,291.342773 
	C294.563568,291.169128 297.146698,291.215332 299.770935,291.689758 
z"/>
<path fill="#E4938E" opacity="1.000000" stroke="none" 
	d="
M291.536987,291.035645 
	C291.980438,291.122955 291.966064,291.520813 292.005005,291.716034 
	C289.453796,292.274658 286.883850,292.090485 283.959900,291.383606 
	C286.094910,291.076904 288.594208,291.012604 291.536987,291.035645 
z"/>
<path fill="#F2D6D5" opacity="1.000000" stroke="none" 
	d="
M276.953369,288.282043 
	C279.182251,287.964752 281.592926,288.045746 284.448029,288.469238 
	C282.304382,288.903259 279.709900,289.374481 276.953369,288.282043 
z"/>
<path fill="#E4938E" opacity="1.000000" stroke="none" 
	d="
M181.405884,265.375061 
	C182.177521,267.414154 182.102356,269.895996 181.407837,272.723541 
	C181.136780,270.665375 181.057892,268.248138 181.405884,265.375061 
z"/>
<path fill="#F2D6D5" opacity="1.000000" stroke="none" 
	d="
M323.980347,257.316315 
	C326.315277,257.022827 328.830658,257.123962 331.634583,257.505188 
	C329.333618,257.973083 326.742493,258.337708 323.980347,257.316315 
z"/>
<path fill="#E4938E" opacity="1.000000" stroke="none" 
	d="
M285.407043,339.845581 
	C287.344940,338.503052 289.861786,339.708527 292.597717,339.553955 
	C290.552246,339.812164 288.199127,339.868256 285.407043,339.845581 
z"/>
<path fill="#F2D6D5" opacity="1.000000" stroke="none" 
	d="
M297.803589,182.195038 
	C297.009796,180.567078 296.372040,178.523163 297.693939,176.204346 
	C297.957611,177.959900 297.882660,179.874924 297.803589,182.195038 
z"/>
<path fill="#F2D6D5" opacity="1.000000" stroke="none" 
	d="
M309.356598,254.004730 
	C308.984100,254.193375 308.542755,254.048767 308.314453,254.005676 
	C309.239349,252.260422 308.777374,250.236435 309.504822,248.195877 
	C309.784912,249.941147 309.756989,251.878616 309.356598,254.004730 
z"/>
<path fill="#E4938E" opacity="1.000000" stroke="none" 
	d="
M350.358765,268.454803 
	C352.168182,268.234894 354.211792,268.313416 356.564453,268.593323 
	C354.780029,268.780853 352.686493,268.767029 350.358765,268.454803 
z"/>
<path fill="#B4B4B4" opacity="1.000000" stroke="none" 
	d="
M190.387146,239.042404 
	C190.019516,237.119965 190.017883,234.997437 190.009003,232.421722 
	C191.906769,234.078918 190.651917,236.534744 190.387146,239.042404 
z"/>
<path fill="#B4B4B4" opacity="1.000000" stroke="none" 
	d="
M353.149841,126.580299 
	C354.542419,128.021866 353.576477,130.249649 354.099762,132.625427 
	C351.759583,131.315292 353.550842,128.983261 353.149841,126.580299 
z"/>
<path fill="#E4938E" opacity="1.000000" stroke="none" 
	d="
M408.259094,220.896164 
	C409.955444,219.236298 412.326508,220.223907 414.861694,220.502228 
	C412.979828,220.868011 410.845337,220.932220 408.259094,220.896164 
z"/>
<path fill="#F2D6D5" opacity="1.000000" stroke="none" 
	d="
M294.655640,288.752502 
	C295.057312,288.949066 295.540985,289.000977 295.775696,289.065308 
	C293.816772,290.788422 291.439606,289.975861 288.906860,289.261444 
	C288.900391,288.864807 289.085144,288.849792 289.547607,288.821716 
	C291.276520,288.286255 292.772919,288.555817 294.655640,288.752502 
z"/>
<path fill="#E4938E" opacity="1.000000" stroke="none" 
	d="
M243.571548,222.075867 
	C244.005157,222.082428 244.060730,222.267212 244.194565,222.730682 
	C244.104309,224.837708 243.935791,226.666077 243.464355,228.738159 
	C243.172119,226.739288 243.182816,224.496674 243.571548,222.075867 
z"/>
<path fill="#F2D6D5" opacity="1.000000" stroke="none" 
	d="
M253.647720,157.129837 
	C253.682755,157.824020 252.788254,158.292450 253.595535,159.543671 
	C252.468155,160.181335 251.454742,159.488220 251.261185,158.438950 
	C251.165009,157.917572 252.155319,156.866989 253.647720,157.129837 
z"/>
<path fill="#F2D6D5" opacity="1.000000" stroke="none" 
	d="
M262.061005,286.382019 
	C263.851288,286.148407 265.809601,286.308655 268.185852,286.458344 
	C268.603790,286.447784 268.607086,286.935730 268.847656,286.976257 
	C266.801849,286.936523 264.515442,286.856232 262.061005,286.382019 
z"/>
<path fill="#F2D6D5" opacity="1.000000" stroke="none" 
	d="
M269.075775,287.377197 
	C270.992157,287.160858 273.059723,287.328156 275.481018,287.627594 
	C273.632172,287.760132 271.429535,287.760498 269.075775,287.377197 
z"/>
<path fill="#F2D6D5" opacity="1.000000" stroke="none" 
	d="
M283.123169,290.767120 
	C281.188629,291.073090 279.063080,291.000458 276.488037,290.867645 
	C278.257233,289.365356 280.598846,289.945648 283.123169,290.767120 
z"/>
<path fill="#F2D6D5" opacity="1.000000" stroke="none" 
	d="
M381.575165,188.102051 
	C382.025452,189.706238 382.106262,191.457092 382.061218,193.630310 
	C379.991364,192.331848 381.175568,190.217728 381.575165,188.102051 
z"/>
<path fill="#F2D6D5" opacity="1.000000" stroke="none" 
	d="
M386.955627,152.361053 
	C388.788422,152.318161 387.129517,154.960663 389.399048,155.156158 
	C386.166382,157.456970 387.245880,154.311569 386.955627,152.361053 
z"/>
<path fill="#E4938E" opacity="1.000000" stroke="none" 
	d="
M227.434113,164.373810 
	C226.991577,164.103592 226.933960,163.924545 226.803925,163.472900 
	C228.649948,163.139923 230.568359,163.079529 232.978653,163.067627 
	C232.849091,163.409027 232.227646,163.701920 231.269165,164.085464 
	C229.930359,164.659592 228.864883,164.456436 227.434113,164.373810 
z"/>
<path fill="#F2D6D5" opacity="1.000000" stroke="none" 
	d="
M248.664276,273.044922 
	C249.093414,274.722290 249.133987,276.546753 249.153870,278.831726 
	C246.964432,277.523499 248.157944,275.282135 248.664276,273.044922 
z"/>
<path fill="#E4938E" opacity="1.000000" stroke="none" 
	d="
M205.922745,181.915802 
	C206.013077,183.756332 205.853378,185.552612 205.445618,187.634827 
	C205.127472,186.165619 205.057419,184.410492 205.079895,182.219894 
	C205.339203,181.813461 205.505951,181.842514 205.922745,181.915802 
z"/>
<path fill="#F2D6D5" opacity="1.000000" stroke="none" 
	d="
M188.788422,223.351227 
	C188.498535,222.063629 188.239716,220.380783 188.000763,218.319870 
	C189.979218,219.343582 188.534729,221.287537 188.788422,223.351227 
z"/>
<path fill="#E4938E" opacity="1.000000" stroke="none" 
	d="
M309.750122,107.470428 
	C308.163971,107.765839 306.365936,107.737770 304.298676,107.442703 
	C305.865723,107.166115 307.701965,107.156525 309.750122,107.470428 
z"/>
<path fill="#F2D6D5" opacity="1.000000" stroke="none" 
	d="
M310.102112,214.474030 
	C311.817688,215.608597 310.871124,217.362671 310.398438,219.302826 
	C310.136230,217.987625 310.085602,216.425552 310.102112,214.474030 
z"/>
<path fill="#F2D6D5" opacity="1.000000" stroke="none" 
	d="
M350.330017,131.983551 
	C349.941315,130.669571 349.918823,129.198776 349.922363,127.285599 
	C351.931030,128.244293 350.817841,130.109894 350.330017,131.983551 
z"/>
<path fill="#F2D6D5" opacity="1.000000" stroke="none" 
	d="
M181.876923,264.500397 
	C181.832748,264.919189 181.497559,264.958710 181.328827,264.955597 
	C181.198898,263.361938 181.237686,261.771423 181.643188,260.022156 
	C181.980316,261.269501 181.950699,262.675537 181.876923,264.500397 
z"/>
<path fill="#F2D6D5" opacity="1.000000" stroke="none" 
	d="
M388.672974,213.969513 
	C388.851349,214.541245 388.696777,215.165100 388.220764,215.898422 
	C388.176819,214.476990 385.464569,215.438919 386.030457,213.351547 
	C386.079071,212.994949 386.008881,212.995239 386.009186,213.030304 
	C386.786346,213.384109 387.563232,213.702866 388.672974,213.969513 
z"/>
<path fill="#E4938E" opacity="1.000000" stroke="none" 
	d="
M234.781525,246.888367 
	C234.943741,247.174866 234.883682,247.557678 234.853500,247.749054 
	C233.868179,248.044220 232.955841,248.133957 232.970886,246.713867 
	C232.981140,245.747421 232.925781,244.812103 234.708832,244.822510 
	C235.205093,244.945450 235.310303,245.161942 235.261871,245.705170 
	C235.108261,246.031921 235.038437,246.011093 235.031311,246.046814 
	C234.889221,246.255661 234.754257,246.428757 234.781525,246.888367 
z"/>
<path fill="#D5160F" opacity="1.000000" stroke="none" 
	d="
M235.985901,249.416580 
	C237.417511,249.145767 237.975128,249.963760 237.932037,251.643951 
	C236.907043,251.548813 236.068512,250.964111 235.985901,249.416580 
z"/>
<path fill="#F2D6D5" opacity="1.000000" stroke="none" 
	d="
M180.655426,274.051208 
	C181.003250,275.347717 180.986053,276.780457 180.986572,278.646057 
	C179.398468,277.648071 180.125092,275.876831 180.655426,274.051208 
z"/>
<path fill="#F2D6D5" opacity="1.000000" stroke="none" 
	d="
M238.371429,162.125671 
	C238.757980,162.192841 238.780487,162.472321 238.841553,162.598511 
	C238.731537,163.277618 238.358414,163.521469 237.422989,163.344513 
	C237.062668,163.232697 236.582306,163.104370 236.334167,163.089127 
	C235.887711,163.181107 235.689377,163.288345 235.166321,163.301025 
	C234.647980,163.198456 234.454376,163.190430 233.971558,163.146866 
	C234.713242,161.112305 236.524353,162.301834 238.371429,162.125671 
z"/>
<path fill="#F2D6D5" opacity="1.000000" stroke="none" 
	d="
M407.425934,154.845673 
	C407.003906,153.541672 406.952087,152.132233 406.956024,150.300842 
	C408.916107,151.234268 407.846863,153.069397 407.425934,154.845673 
z"/>
<path fill="#DE1C0D" opacity="1.000000" stroke="none" 
	d="
M362.629364,231.012558 
	C362.852539,232.421646 362.005768,232.985352 360.308228,232.963425 
	C360.425018,231.929260 361.130310,231.192657 362.629364,231.012558 
z"/>
<path fill="#F2D6D5" opacity="1.000000" stroke="none" 
	d="
M259.862061,214.889069 
	C258.461700,214.900604 257.120911,214.575043 255.330536,215.036102 
	C256.439423,213.253525 258.210510,214.161804 259.862061,214.889069 
z"/>
<path fill="#D5160F" opacity="1.000000" stroke="none" 
	d="
M185.626556,252.104004 
	C185.965347,253.079102 186.128098,254.221359 184.542389,254.909561 
	C183.708679,253.719162 184.517700,252.971893 185.626556,252.104004 
z"/>
<path fill="#F2D6D5" opacity="1.000000" stroke="none" 
	d="
M390.334076,212.660629 
	C390.064697,213.252975 389.751587,213.668045 389.177490,214.047348 
	C389.117920,213.261597 388.845520,212.298920 390.033020,211.663086 
	C390.235168,211.769699 390.262756,212.126526 390.334076,212.660629 
z"/>
<path fill="#D5160F" opacity="1.000000" stroke="none" 
	d="
M235.407532,245.961060 
	C235.131149,245.814789 235.154037,245.597656 235.138397,245.054718 
	C235.506317,244.476501 235.912766,244.224075 236.578537,243.976303 
	C236.892548,244.873123 236.604492,245.562241 235.407532,245.961060 
z"/>
<path fill="#E9240B" opacity="1.000000" stroke="none" 
	d="
M249.315994,210.930283 
	C249.846039,210.543442 250.639999,210.283920 251.760895,210.034363 
	C251.427856,210.817688 251.124283,212.473190 249.315994,210.930283 
z"/>
<path fill="#DE1C0D" opacity="1.000000" stroke="none" 
	d="
M366.699524,229.149612 
	C366.786102,230.099472 366.602142,231.035690 365.146149,230.176849 
	C365.207062,229.280945 365.741974,229.088486 366.699524,229.149612 
z"/>
<path fill="#E4938E" opacity="1.000000" stroke="none" 
	d="
M285.320374,288.899323 
	C284.892426,288.811737 284.867645,288.516266 284.880554,288.368591 
	C285.859406,288.279633 286.825409,288.338379 288.090271,288.629822 
	C287.508881,288.903992 286.628632,288.945435 285.320374,288.899323 
z"/>
<path fill="#F2D6D5" opacity="1.000000" stroke="none" 
	d="
M286.572083,76.071373 
	C286.325378,76.938004 285.451599,77.005684 284.225464,76.982880 
	C284.261108,75.622444 285.335602,76.051018 286.572083,76.071373 
z"/>
<path fill="#E4938E" opacity="1.000000" stroke="none" 
	d="
M341.956116,211.121857 
	C340.918732,211.304993 339.934631,211.011414 338.705841,210.411224 
	C339.667267,210.131561 341.004883,209.295212 341.956116,211.121857 
z"/>
<path fill="#DE1C0D" opacity="1.000000" stroke="none" 
	d="
M382.612244,222.113129 
	C382.877441,222.918518 382.570343,223.605423 381.317627,223.890503 
	C381.457764,223.348709 381.905823,222.777786 382.612244,222.113129 
z"/>
<path fill="#E9240B" opacity="1.000000" stroke="none" 
	d="
M192.624680,204.148346 
	C192.827866,204.793579 192.739426,205.575317 192.432816,206.548569 
	C192.254120,205.921677 192.293594,205.103271 192.624680,204.148346 
z"/>
<path fill="#D5160F" opacity="1.000000" stroke="none" 
	d="
M242.663116,235.080231 
	C242.777313,235.498215 242.617493,236.035538 242.223907,236.739120 
	C242.123123,236.336777 242.256119,235.768173 242.663116,235.080231 
z"/>
<path fill="#F2D6D5" opacity="1.000000" stroke="none" 
	d="
M295.869324,76.624977 
	C295.362854,76.817543 294.846832,76.696297 294.200958,76.336151 
	C294.667328,76.168549 295.263550,76.239861 295.869324,76.624977 
z"/>
<path fill="#D5160F" opacity="1.000000" stroke="none" 
	d="
M243.132462,232.357269 
	C243.741898,232.468369 243.991547,232.961029 243.394043,233.765198 
	C243.172699,233.500458 243.121964,233.084335 243.132462,232.357269 
z"/>
<path fill="#DE1C0D" opacity="1.000000" stroke="none" 
	d="
M396.878357,234.765411 
	C396.470428,234.799133 396.141541,234.591766 395.812653,234.384399 
	C396.065979,234.267609 396.319305,234.150818 396.797424,234.027527 
	C397.000610,234.188797 396.979004,234.356552 396.878357,234.765411 
z"/>
<path fill="#EE270A" opacity="1.000000" stroke="none" 
	d="
M308.924255,186.635742 
	C308.520935,186.806839 307.993866,186.702393 307.270386,186.407593 
	C307.649475,186.264893 308.224976,186.312531 308.924255,186.635742 
z"/>
<path fill="#D5160F" opacity="1.000000" stroke="none" 
	d="
M241.622757,237.106201 
	C241.747025,237.531647 241.591797,238.059662 241.205414,238.749985 
	C241.097275,238.344452 241.220276,237.776596 241.622757,237.106201 
z"/>
<path fill="#DE1C0D" opacity="1.000000" stroke="none" 
	d="
M363.718811,230.193512 
	C363.823395,230.467438 363.631958,230.666412 363.186890,230.881897 
	C363.005920,230.600769 363.169128,230.340836 363.718811,230.193512 
z"/>
<path fill="#EE270A" opacity="1.000000" stroke="none" 
	d="
M302.738708,185.138611 
	C302.971863,185.185486 302.653290,185.488419 302.653290,185.488419 
	C302.653290,185.488419 302.236755,185.446381 302.141266,185.330017 
	C302.045776,185.213654 302.505554,185.091721 302.738708,185.138611 
z"/>
<path fill="#D5160F" opacity="1.000000" stroke="none" 
	d="
M186.742371,250.005402 
	C186.910629,250.201141 186.781815,250.460083 186.408936,250.820435 
	C186.091629,250.595215 186.185120,250.310806 186.742371,250.005402 
z"/>
<path fill="#E11C0B" opacity="1.000000" stroke="none" 
	d="
M191.152527,220.238190 
	C191.168610,219.981857 191.567307,219.956451 191.763855,219.921509 
	C191.968109,220.077011 191.975845,220.267456 191.976700,220.743774 
	C191.692017,220.851257 191.414230,220.672882 191.152527,220.238190 
z"/>
<path fill="#E9240B" opacity="1.000000" stroke="none" 
	d="
M193.722137,202.986816 
	C193.862717,203.212967 193.687225,203.477951 193.216492,203.802841 
	C193.166687,203.639252 193.328308,203.360229 193.722137,202.986816 
z"/>
<path fill="#F2D6D5" opacity="1.000000" stroke="none" 
	d="
M386.013916,151.281372 
	C386.329895,151.164795 386.679688,151.325424 387.005035,151.789139 
	C386.669617,151.914337 386.358643,151.736450 386.013916,151.281372 
z"/>
<path fill="#DE1C0D" opacity="1.000000" stroke="none" 
	d="
M368.708862,228.180115 
	C368.810516,228.458176 368.608398,228.663147 368.141846,228.882919 
	C367.978912,228.603317 368.154816,228.339752 368.708862,228.180115 
z"/>
<path fill="#D5160F" opacity="1.000000" stroke="none" 
	d="
M235.063354,248.313263 
	C235.299225,248.171188 235.542938,248.340927 235.822418,248.801086 
	C235.576584,248.983582 235.314255,248.828094 235.063354,248.313263 
z"/>
<path fill="#EE270A" opacity="1.000000" stroke="none" 
	d="
M300.990234,184.706146 
	C300.892548,184.966599 300.714630,184.977478 300.269409,184.985443 
	C300.002136,184.982559 300.000916,184.587494 300.000214,184.390656 
	C300.303009,184.281403 300.606537,184.368988 300.990234,184.706146 
z"/>
<path fill="#F72F0A" opacity="1.000000" stroke="none" 
	d="
M222.685333,164.185059 
	C222.799637,164.461365 222.618698,164.657913 222.186188,164.868286 
	C221.995285,164.590332 222.147125,164.331390 222.685333,164.185059 
z"/>
<path fill="#F72F0A" opacity="1.000000" stroke="none" 
	d="
M251.717010,163.165680 
	C251.942276,163.226349 251.629257,163.513626 251.629257,163.513626 
	C251.629257,163.513626 251.226105,163.456238 251.133820,163.341888 
	C251.041519,163.227539 251.491730,163.105011 251.717010,163.165680 
z"/>
<path fill="#D5160F" opacity="1.000000" stroke="none" 
	d="
M240.684647,239.051758 
	C240.860657,239.267487 240.732742,239.506790 240.358795,239.821838 
	C240.041824,239.587372 240.131149,239.313278 240.684647,239.051758 
z"/>
<path fill="#D5160F" opacity="1.000000" stroke="none" 
	d="
M239.592438,241.055786 
	C239.770264,241.299728 239.628586,241.534698 239.182373,241.780502 
	C238.981110,241.535812 239.112808,241.287643 239.592438,241.055786 
z"/>
<path fill="#EE270A" opacity="1.000000" stroke="none" 
	d="
M305.959961,185.747437 
	C305.851959,185.986694 305.671051,185.988861 305.218750,185.984985 
	C305.140015,185.580933 305.176727,184.870255 305.959961,185.747437 
z"/>
<path fill="#E4938E" opacity="1.000000" stroke="none" 
	d="
M264.851440,167.743744 
	C263.772461,167.662888 262.709137,167.391602 261.320770,167.036499 
	C260.776550,165.957779 259.720825,165.051331 260.572968,164.001068 
	C260.664307,163.888519 261.773773,164.602005 262.705322,164.968964 
	C263.163818,165.169388 263.327881,165.333145 263.745117,165.735229 
	C263.998322,165.973557 263.993927,166.008011 264.011047,166.005157 
	C264.262573,166.242126 264.477814,166.498138 264.818451,166.975357 
	C264.960205,167.182693 264.867065,167.553314 264.851440,167.743744 
z"/>
<path fill="#F72F0A" opacity="1.000000" stroke="none" 
	d="
M237.393829,163.453217 
	C237.469254,163.114517 237.875854,162.996353 238.592529,162.801437 
	C241.948959,162.821259 244.995300,162.917816 248.487183,163.095261 
	C245.256454,164.685318 241.482803,164.000870 237.393829,163.453217 
z"/>
<path fill="#F72F0A" opacity="1.000000" stroke="none" 
	d="
M227.294708,164.461731 
	C228.084564,164.225708 229.119934,164.168762 230.543716,164.143982 
	C229.917221,165.175797 228.760193,165.138046 227.294708,164.461731 
z"/>
<path fill="#F72F0A" opacity="1.000000" stroke="none" 
	d="
M264.865112,166.942307 
	C264.713654,166.948868 264.467102,166.715042 264.124390,166.241760 
	C264.275482,166.235519 264.522766,166.468719 264.865112,166.942307 
z"/>
<path fill="#F72F0A" opacity="1.000000" stroke="none" 
	d="
M263.875305,165.771088 
	C263.660156,165.908859 263.392822,165.735138 263.098022,165.229004 
	C263.298553,165.129196 263.549408,165.316864 263.875305,165.771088 
z"/>
<path fill="#E4938E" opacity="1.000000" stroke="none" 
	d="
M234.989822,163.302597 
	C235.044296,163.140884 235.247009,163.075272 235.767883,163.041779 
	C235.770050,163.182159 235.454041,163.290436 234.989822,163.302597 
z"/>
<path fill="#000000" opacity="1.000000" stroke="none" 
	d="
M402.174561,178.681122 
	C400.739594,181.816589 399.389069,184.540024 398.004883,187.624420 
	C397.013702,189.739700 397.661072,191.615005 397.753479,193.724594 
	C398.461395,200.352737 402.142914,203.750702 408.513672,204.987885 
	C410.748779,205.985901 412.710541,205.423782 414.943115,205.125488 
	C416.769928,204.669632 418.295807,204.428741 420.242249,204.121460 
	C419.684052,206.322800 417.958923,206.372513 416.328949,207.068924 
	C413.635529,207.836761 411.258789,207.375931 408.482361,207.317673 
	C401.755951,206.514984 397.833771,202.516769 396.208313,196.977524 
	C394.251160,190.307922 395.166718,183.770096 401.144562,178.559708 
	C401.701233,178.327347 401.980103,178.298203 402.174561,178.681122 
z"/>
<path fill="#000000" opacity="1.000000" stroke="none" 
	d="
M401.576782,178.552002 
	C409.596222,170.559708 424.203217,175.398483 427.110138,184.360001 
	C427.457062,185.429443 428.206543,186.368301 428.810791,187.717560 
	C428.136353,189.781189 428.621979,191.566483 428.688232,193.615936 
	C427.491028,196.895111 427.677185,201.029984 422.554871,201.953735 
	C423.778168,199.187775 426.087616,197.503372 426.028687,194.409531 
	C426.920349,192.234329 426.384766,190.347763 426.215149,188.210968 
	C424.873199,181.589371 420.470367,178.617874 414.380127,176.954956 
	C412.208405,176.036484 410.267120,176.767593 408.039429,176.281845 
	C406.163269,177.354599 404.639923,178.496887 402.418060,179.046341 
	C402.090149,179.093155 401.731201,178.747513 401.576782,178.552002 
z"/>
<path fill="#F2D6D5" opacity="1.000000" stroke="none" 
	d="
M408.282959,207.495514 
	C410.399872,207.156662 412.739899,207.133621 415.522034,207.133972 
	C413.591125,208.664246 411.024933,207.967438 408.282959,207.495514 
z"/>
<path fill="#E4938E" opacity="1.000000" stroke="none" 
	d="
M397.967438,193.584946 
	C396.077026,192.301086 397.241669,190.214172 397.605957,188.127899 
	C397.976929,189.708450 397.982666,191.431549 397.967438,193.584946 
z"/>
<path fill="#E4938E" opacity="1.000000" stroke="none" 
	d="
M407.915466,176.485580 
	C409.645447,176.162109 411.636841,176.168137 413.815979,176.543991 
	C412.061462,176.880905 410.119171,176.847992 407.915466,176.485580 
z"/>
<path fill="#F2D6D5" opacity="1.000000" stroke="none" 
	d="
M425.960938,188.360443 
	C427.994537,189.622482 426.715149,191.767975 426.440552,193.880341 
	C426.022400,192.288605 425.967957,190.542206 425.960938,188.360443 
z"/>
<path fill="#F2D6D5" opacity="1.000000" stroke="none" 
	d="
M428.886292,193.497620 
	C427.270477,192.235092 428.212921,190.262436 428.521851,188.235046 
	C428.879944,189.738724 428.907776,191.410004 428.886292,193.497620 
z"/>
<path fill="#F2D6D5" opacity="1.000000" stroke="none" 
	d="
M414.788635,204.884033 
	C413.482544,207.005142 411.267212,205.750839 409.052246,205.352417 
	C410.701660,204.937790 412.517395,204.897659 414.788635,204.884033 
z"/>
<path fill="#D5160F" opacity="1.000000" stroke="none" 
	d="
M234.968201,246.902100 
	C234.732727,246.970718 234.509796,246.776245 234.326218,246.549820 
	C234.304077,246.522522 234.494888,246.322556 234.805603,246.142578 
	C235.013687,246.264801 235.003159,246.447067 234.968201,246.902100 
z"/>
<path fill="#E9240B" opacity="1.000000" stroke="none" 
	d="
M304.988953,203.123291 
	C304.957336,203.380371 304.797028,203.449265 304.378906,203.565369 
	C304.222626,203.228683 304.098328,202.598404 304.988953,203.123291 
z"/>
<path fill="#E4938E" opacity="1.000000" stroke="none" 
	d="
M336.138306,210.093811 
	C336.223633,209.954865 336.411377,209.935699 336.863007,210.019821 
	C337.126892,210.123123 336.703583,210.296478 336.703583,210.296478 
	C336.703583,210.296478 336.240784,210.213577 336.138306,210.093811 
z"/>
<path fill="#DE1C0D" opacity="1.000000" stroke="none" 
	d="
M316.217224,231.879608 
	C316.088806,231.978851 316.045624,231.492279 316.053345,231.248322 
	C316.413879,231.191162 316.508759,231.449814 316.217224,231.879608 
z"/>
<path fill="#E4938E" opacity="1.000000" stroke="none" 
	d="
M294.759766,288.802338 
	C293.596283,288.981689 292.135254,289.014252 290.249756,288.927734 
	C291.370972,288.757629 292.916595,288.706604 294.759766,288.802338 
z"/>
</svg>